# xmcd
#
# Track frame offsets:
#	183
#	12398
#	26713
#	39963
#	54598
#	66460
#	76470
#	87233
#	100323
#	111125
#	123913
#	136723
#	151640
#	164040
#
# Disc length: 2364
#
# Revision: 2
# Processed by: cddbd v1.5.1PL0 Copyright (c) Steve Scherf et al.
# Submitted via: ExactAudioCopy v0.95a3
# Normalized: r0:TDELIM( - ),TSWAP
#
DISCID=b0093a0e
DTITLE=Various Artist - 60s Soul Club
DYEAR=1900
DGENRE=Soul
TTITLE0=Billy Stewart - Summertime
TTITLE1=Joe Simon - Farther On Up The Road
TTITLE2=Joe Tex - Show Me
TTITLE3=Bobby Womack - How I Miss You Baby
TTITLE4=Robert Parker - Barefootin
TTITLE5=Betty Everett - Gettin Mighty Crowded
TTITLE6=Esquires - Get On Up
TTITLE7=Fontella Bass - Rescue Me
TTITLE8=Syl Johnson - Come On sock It To Me
TTITLE9=Chris Kenner - Land Of 1000 Dances
TTITLE10=Lee Dorsey - Ride Your Pony
TTITLE11=Jackie Ross - Selfish One
TTITLE12=Peggy Scott and Jo Jo Benson - Lover's Holiday
TTITLE13=Gene Chandler - Nothing Can Stop Me
EXTD=
EXTT0=
EXTT1=
EXTT2=
EXTT3=
EXTT4=
EXTT5=
EXTT6=
EXTT7=
EXTT8=
EXTT9=
EXTT10=
EXTT11=
EXTT12=
EXTT13=
PLAYORDER=
